<svg xmlns="http://www.w3.org/2000/svg" xmlns:xlink="http://www.w3.org/1999/xlink" width="500" zoomAndPan="magnify" viewBox="0 0 375 374.999991" height="500" preserveAspectRatio="xMidYMid meet" version="1.0"><defs><g/><clipPath id="bbb6a3573a"><path d="M 143 137 L 251 137 L 251 227.234375 L 143 227.234375 Z M 143 137 " clip-rule="nonzero"/></clipPath><clipPath id="2adc0428cf"><path d="M 130 83.984375 L 208 83.984375 L 208 178 L 130 178 Z M 130 83.984375 " clip-rule="nonzero"/></clipPath></defs><g clip-path="url(#bbb6a3573a)"><path fill="#51ade5" d="M 181.015625 198.980469 C 186.132812 198.308594 191.007812 193.726562 191.097656 193.640625 C 191.089844 193.675781 191.261719 194.003906 195.867188 197.15625 C 201.394531 200.945312 206.417969 195.289062 206.417969 195.289062 C 213.945312 199.984375 219.117188 197.761719 219.117188 197.761719 C 214.535156 200.742188 208.019531 198.773438 208.019531 198.773438 C 198.042969 204.402344 191.296875 197.664062 191.296875 197.664062 C 187.109375 199.667969 181.015625 198.980469 181.015625 198.980469 Z M 143.71875 194.550781 C 146.90625 201.523438 151.476562 207.722656 157.082031 212.800781 C 173.179688 210.214844 179.394531 202.878906 179.394531 202.878906 C 179.394531 202.878906 184.058594 211 195.082031 210.925781 C 206.101562 210.847656 208.535156 202.878906 208.535156 202.878906 C 208.535156 202.878906 212.460938 208.027344 222.636719 210.527344 C 229.171875 212.132812 236.839844 208.0625 239.078125 204.964844 L 239.078125 204.960938 C 235.167969 203.996094 232.421875 202.972656 232.421875 202.972656 C 224.578125 207.699219 216.324219 204.261719 216.324219 204.261719 C 224.601562 205.753906 231.480469 195.410156 231.480469 195.410156 C 231.480469 195.410156 234.46875 199.222656 241.101562 202.09375 C 246.929688 193.257812 250.324219 182.671875 250.324219 171.289062 C 250.324219 158.71875 246.1875 147.117188 239.203125 137.777344 C 238.246094 138.457031 237.140625 139.363281 235.742188 140.875 C 224.3125 153.226562 207.980469 165.40625 195.238281 173.386719 C 177.804688 184.308594 159.515625 191.390625 143.71875 194.550781 Z M 158.28125 213.851562 C 168.03125 222.191406 180.675781 227.226562 194.5 227.226562 C 206.601562 227.226562 217.804688 223.367188 226.949219 216.8125 C 217.195312 217.046875 210.382812 211.488281 210.382812 211.488281 C 195.109375 222.464844 179.394531 211 179.394531 211 C 168.527344 214.039062 161.878906 214.210938 158.28125 213.851562 " fill-opacity="1" fill-rule="nonzero"/></g><path fill="#3871c1" d="M 195.238281 173.386719 C 207.980469 165.40625 224.3125 153.226562 235.742188 140.875 C 237.140625 139.363281 238.246094 138.457031 239.203125 137.777344 C 239.46875 138.136719 239.730469 138.496094 239.988281 138.859375 C 233.199219 149.339844 220.050781 167.265625 201.441406 182 C 184.933594 195.066406 167.933594 204.4375 153.480469 209.226562 C 149.5 204.910156 146.191406 199.960938 143.71875 194.550781 C 159.515625 191.390625 177.804688 184.308594 195.238281 173.386719 " fill-opacity="1" fill-rule="nonzero"/><path fill="#f68712" d="M 233.679688 131.441406 C 227.734375 137.949219 216.65625 148.746094 201.097656 158.429688 C 187.835938 166.675781 174 172.882812 161.941406 176.191406 C 159.398438 176.886719 156.933594 177.453125 154.570312 177.886719 C 151.007812 178.535156 147.675781 178.875 144.648438 178.875 C 142.59375 178.875 140.746094 178.71875 139.125 178.414062 C 138.832031 176.082031 138.675781 173.703125 138.675781 171.289062 C 138.675781 150.960938 149.496094 133.167969 165.675781 123.371094 C 170.65625 120.355469 176.148438 118.097656 181.988281 116.757812 C 182.019531 116.75 182.046875 116.742188 182.078125 116.738281 C 183.597656 116.390625 185.140625 116.109375 186.703125 115.890625 C 186.917969 115.859375 187.136719 115.832031 187.355469 115.800781 C 188.898438 115.605469 190.460938 115.46875 192.042969 115.402344 C 192.144531 115.398438 192.246094 115.390625 192.347656 115.390625 C 193.0625 115.359375 193.78125 115.347656 194.5 115.347656 C 197.335938 115.347656 200.125 115.558594 202.847656 115.96875 C 214.777344 117.761719 225.476562 123.339844 233.679688 131.441406 " fill-opacity="1" fill-rule="nonzero"/><path fill="#2c3892" d="M 263.585938 108.1875 C 267.921875 101.53125 270.261719 95.621094 268.867188 94.667969 C 267.46875 93.710938 262.832031 98.054688 258.226562 104.523438 L 240.539062 104.660156 L 237.707031 108.820312 L 251.574219 114.902344 C 249.789062 117.855469 247.941406 121.015625 246.320312 123.925781 L 237.28125 123.449219 L 235.925781 125.441406 L 243.660156 128.917969 C 243.523438 129.191406 229.578125 147.773438 204.257812 163.53125 C 170.007812 184.839844 135.53125 191.285156 127.234375 177.90625 C 121.488281 168.632812 129.824219 152.28125 146.878906 136.015625 C 119.59375 157.199219 104.542969 180.964844 112.199219 193.3125 C 121.328125 208.035156 159.332031 201.054688 196.945312 177.496094 C 227.359375 158.445312 246.15625 130.769531 246.238281 130.679688 L 249.496094 135.207031 L 250.851562 133.214844 L 249.902344 126.375 C 252.019531 123.800781 254.28125 120.925781 256.371094 118.183594 L 259.460938 127.636719 L 262.292969 123.476562 L 263.585938 108.1875 " fill-opacity="1" fill-rule="nonzero"/><g clip-path="url(#2adc0428cf)"><path fill="#24265d" d="M 193.820312 116.59375 C 195.601562 118.132812 197.769531 119.144531 200.078125 119.589844 C 202.523438 120.0625 204.808594 120.804688 207.324219 122 C 207.324219 122 205.800781 119.113281 202.847656 115.96875 C 198.441406 111.277344 190.855469 106.019531 180.414062 108.976562 C 180.566406 108.878906 180.71875 108.78125 180.875 108.683594 C 180.121094 108.382812 179.25 108.140625 178.261719 108.027344 C 178.261719 108.027344 178.78125 107.871094 179.636719 107.863281 C 181.253906 107.84375 182.847656 107.449219 184.261719 106.664062 L 184.308594 106.636719 C 183.457031 106.246094 182.988281 105.59375 181.785156 105.460938 C 181.785156 105.460938 182.480469 105.25 183.582031 105.300781 C 185.414062 105.386719 187.242188 105.046875 188.890625 104.25 C 188.984375 104.203125 189.078125 104.160156 189.171875 104.117188 C 188.246094 103.636719 187.0625 103.203125 185.648438 103.046875 C 185.648438 103.046875 186.625 102.722656 187.988281 102.726562 C 190.695312 102.742188 193.378906 102.183594 195.890625 101.167969 C 195.996094 101.125 196.097656 101.085938 196.191406 101.050781 C 193.984375 100.390625 191.023438 99.722656 189.59375 99.5625 C 189.59375 99.5625 196.636719 98.828125 201.835938 99.347656 C 201.835938 99.347656 184.285156 87.210938 174.375 109.339844 C 176.023438 103.816406 176.503906 94.195312 167.746094 88.210938 C 163.636719 85.40625 157.996094 83.980469 157.996094 83.980469 C 159.554688 85.519531 167.230469 94.605469 167.910156 95.996094 C 167.851562 95.953125 165.964844 94.550781 163.75 93.621094 C 163.785156 93.726562 163.816406 93.832031 163.851562 93.9375 C 164.449219 95.859375 168.078125 100.296875 168.496094 101.140625 C 168.496094 101.140625 166.96875 100.003906 165.039062 99.082031 C 165.492188 101.875 166.785156 104.867188 166.898438 107.386719 C 158.066406 90.160156 138.765625 95.511719 138.765625 95.511719 C 145.113281 96.191406 153.351562 98.828125 153.351562 98.828125 C 151.601562 98.660156 147.894531 98.71875 145.09375 98.960938 C 145.1875 99.019531 145.285156 99.085938 145.390625 99.15625 C 148.164062 101.003906 151.25 102.34375 154.507812 103.015625 C 156.128906 103.351562 157.203125 103.976562 157.203125 103.976562 C 155.472656 103.8125 153.949219 104.035156 152.726562 104.375 L 152.871094 104.484375 C 154.722656 105.898438 156.898438 106.8125 159.195312 107.203125 C 160.476562 107.421875 161.222656 107.828125 161.222656 107.828125 C 159.75 107.6875 159.03125 108.351562 157.910156 108.605469 C 157.960938 108.648438 158.011719 108.691406 158.058594 108.730469 C 158.460938 109.078125 158.882812 109.390625 159.328125 109.675781 C 136.242188 102.195312 130.230469 118.941406 130.230469 118.941406 C 135.421875 115.328125 143.265625 111.945312 143.417969 111.878906 C 141.988281 112.902344 139.226562 115.378906 137.265625 117.394531 C 137.285156 117.394531 137.304688 117.390625 137.320312 117.390625 C 140.804688 116.925781 144.160156 115.800781 147.269531 114.15625 C 148.605469 113.453125 149.699219 113.242188 149.699219 113.242188 C 148.28125 114.253906 147.277344 115.421875 146.574219 116.480469 C 146.605469 116.480469 146.636719 116.476562 146.664062 116.476562 C 149.027344 116.328125 151.304688 115.585938 153.332031 114.363281 C 154.398438 113.71875 155.199219 113.527344 155.25 113.519531 C 154.046875 114.378906 153.933594 115.351562 153.257812 116.277344 L 153.304688 116.277344 C 155.257812 116.265625 157.191406 115.785156 158.898438 114.835938 C 159.824219 114.324219 160.492188 114.167969 160.53125 114.15625 C 159.546875 114.863281 158.761719 115.644531 158.132812 116.414062 C 159.054688 116.460938 159.933594 116.519531 160.769531 116.585938 C 148.039062 119.726562 148.113281 134.519531 148.113281 134.519531 C 148.863281 132.9375 149.835938 131.566406 150.949219 130.375 C 151.496094 127.472656 152.660156 125.199219 152.660156 125.199219 C 152.40625 126.65625 152.957031 130.011719 152.964844 130.003906 C 154.796875 128.390625 155.582031 125.46875 156.527344 123.21875 C 156.769531 122.640625 156.941406 122.300781 156.941406 122.300781 C 156.691406 123.722656 156.574219 124.988281 156.546875 126.109375 C 156.558594 126.101562 156.574219 126.09375 156.589844 126.089844 C 159 124.738281 160.925781 122.660156 162.03125 120.125 C 162.21875 119.699219 161.953125 122.386719 161.941406 123.582031 C 165.210938 120.566406 167.226562 121.414062 167.226562 121.414062 C 166.738281 121.992188 166.21875 122.644531 165.675781 123.371094 C 159.773438 131.300781 151.179688 148.347656 154.570312 177.886719 C 156.933594 177.453125 159.398438 176.886719 161.941406 176.191406 C 159.171875 164.625 155.875 140.839844 169.359375 123.175781 C 169.363281 123.304688 169.855469 122.382812 170.285156 121.910156 C 170.367188 121.976562 169.417969 125.980469 169.355469 127.648438 L 169.355469 127.691406 C 170.148438 127.140625 170.972656 127.074219 171.726562 126.078125 C 171.71875 126.121094 171.539062 126.792969 170.96875 127.675781 C 169.886719 129.355469 169.207031 131.261719 169.019531 133.253906 C 169.015625 133.277344 169.015625 133.300781 169.011719 133.328125 C 169.921875 132.761719 170.929688 131.941406 171.8125 130.773438 C 171.804688 130.828125 171.59375 131.726562 170.980469 132.804688 C 169.519531 135.382812 168.492188 138.1875 168.011719 141.117188 C 168.011719 141.132812 168.007812 141.144531 168.003906 141.160156 C 169.753906 139.558594 171.90625 137.289062 172.800781 136.109375 C 172.738281 136.246094 169.695312 142.773438 166.523438 147.058594 C 166.523438 147.058594 180.714844 140.785156 176.046875 122.84375 C 176.722656 125.539062 178.296875 127.917969 180.511719 129.589844 C 180.527344 129.601562 180.546875 129.617188 180.5625 129.628906 C 180.808594 128.640625 180.90625 126.039062 180.949219 124.808594 C 180.949219 124.808594 183.808594 128.265625 184.960938 133.195312 L 184.996094 133.230469 C 185.226562 132.273438 185.527344 129.722656 185.570312 128.550781 C 185.570312 128.550781 187.679688 132.851562 191.148438 142.164062 C 191.148438 142.164062 195.417969 126.140625 183.132812 117.441406 C 184.761719 118.285156 186.582031 118.722656 188.429688 118.707031 L 188.480469 118.707031 C 188.207031 118.070312 186.714844 116.367188 186.488281 116.046875 C 186.488281 116.046875 191.90625 118.710938 194.121094 118.867188 L 194.183594 118.871094 C 193.851562 118.113281 192.296875 115.707031 192.195312 115.5625 C 192.195312 115.5625 193.265625 116.113281 193.820312 116.59375 " fill-opacity="1" fill-rule="nonzero"/></g><g fill="#f68712" fill-opacity="1"><g transform="translate(117.468072, 260.182425)"><g><path d="M 23.453125 -12.8125 L 23.453125 0 L 19.046875 0 L 19.046875 -1.765625 C 17.066406 -0.359375 14.851562 0.34375 12.40625 0.34375 C 9.257812 0.34375 6.578125 -0.765625 4.359375 -2.984375 C 2.128906 -5.210938 1.015625 -7.898438 1.015625 -11.046875 C 1.015625 -14.203125 2.128906 -16.890625 4.359375 -19.109375 C 6.578125 -21.328125 9.257812 -22.4375 12.40625 -22.4375 C 15.21875 -22.4375 17.691406 -21.53125 19.828125 -19.71875 L 16.421875 -16.359375 C 15.222656 -17.242188 13.882812 -17.6875 12.40625 -17.6875 C 10.550781 -17.6875 9 -17.035156 7.75 -15.734375 C 6.4375 -14.421875 5.78125 -12.859375 5.78125 -11.046875 C 5.78125 -9.234375 6.4375 -7.671875 7.75 -6.359375 C 9.039062 -5.066406 10.59375 -4.421875 12.40625 -4.421875 C 14.195312 -4.421875 15.765625 -5.066406 17.109375 -6.359375 C 17.148438 -6.398438 17.191406 -6.445312 17.234375 -6.5 L 17.40625 -6.65625 C 17.5625 -6.84375 17.707031 -7.015625 17.84375 -7.171875 C 18.226562 -7.648438 18.488281 -8.054688 18.625 -8.390625 L 13.53125 -8.390625 L 13.53125 -12.8125 Z M 19 -8.390625 L 19.046875 -8.359375 L 19.046875 -8.390625 Z M 19 -8.390625 "/></g></g></g><g fill="#ffffff" fill-opacity="1"><g transform="translate(141.93682, 260.182425)"><g><path d="M 17.984375 0 L 16.390625 -3.09375 L 8.0625 -3.09375 L 6.453125 0 L 0.34375 0 L 12.234375 -22.09375 L 24.109375 0 Z M 14.25 -7.234375 L 12.234375 -11.125 L 10.203125 -7.234375 Z M 14.25 -7.234375 "/></g></g></g><g fill="#ffffff" fill-opacity="1"><g transform="translate(166.380014, 260.182425)"><g><path d="M 14.078125 -17.546875 L 18.53125 -17.546875 L 18.53125 -0.03125 C 18.53125 2.363281 17.679688 4.414062 15.984375 6.125 C 14.304688 7.820312 12.265625 8.679688 9.859375 8.703125 C 7.617188 8.722656 5.660156 7.988281 3.984375 6.5 C 2.328125 5.039062 1.375 3.210938 1.125 1.015625 L 5.609375 1.015625 C 5.765625 1.742188 6.148438 2.414062 6.765625 3.03125 C 7.609375 3.863281 8.628906 4.28125 9.828125 4.28125 C 11.023438 4.28125 12.035156 3.847656 12.859375 2.984375 C 13.691406 2.148438 14.109375 1.144531 14.109375 -0.03125 L 14.078125 -1.765625 C 12.921875 -0.609375 11.515625 -0.03125 9.859375 -0.03125 C 7.429688 -0.0078125 5.359375 -0.847656 3.640625 -2.546875 C 1.910156 -4.242188 1.046875 -6.304688 1.046875 -8.734375 C 1.023438 -11.160156 1.863281 -13.222656 3.5625 -14.921875 C 5.269531 -16.648438 7.335938 -17.523438 9.765625 -17.546875 C 11.679688 -17.546875 13.117188 -16.941406 14.078125 -15.734375 Z M 14.078125 -9.28125 C 13.984375 -10.28125 13.5625 -11.140625 12.8125 -11.859375 C 11.957031 -12.679688 10.941406 -13.09375 9.765625 -13.09375 C 8.578125 -13.09375 7.566406 -12.671875 6.734375 -11.828125 C 5.890625 -10.941406 5.46875 -9.921875 5.46875 -8.765625 C 5.46875 -7.585938 5.898438 -6.570312 6.765625 -5.71875 C 7.609375 -4.875 8.628906 -4.453125 9.828125 -4.453125 C 11.046875 -4.492188 12.054688 -4.925781 12.859375 -5.75 C 13.554688 -6.445312 13.960938 -7.285156 14.078125 -8.265625 Z M 14.078125 -9.28125 "/></g></g></g><g fill="#ffffff" fill-opacity="1"><g transform="translate(185.927769, 260.182425)"><g><path d="M 17.890625 -7.984375 C 17.910156 -7.515625 17.910156 -7.234375 17.890625 -7.140625 L 5.09375 -7.171875 C 5.28125 -6.648438 5.613281 -6.148438 6.09375 -5.671875 C 6.96875 -4.835938 7.984375 -4.421875 9.140625 -4.421875 C 10.367188 -4.460938 11.390625 -4.894531 12.203125 -5.71875 L 12.34375 -5.84375 L 16.765625 -4.453125 C 15.785156 -2.929688 14.765625 -1.84375 13.703125 -1.1875 C 12.503906 -0.414062 11 -0.0195312 9.1875 0 C 6.78125 0.0195312 4.710938 -0.816406 2.984375 -2.515625 C 1.265625 -4.210938 0.394531 -6.273438 0.375 -8.703125 C 0.351562 -11.109375 1.191406 -13.171875 2.890625 -14.890625 C 4.585938 -16.609375 6.648438 -17.484375 9.078125 -17.515625 C 11.484375 -17.535156 13.546875 -16.695312 15.265625 -15 C 16.984375 -13.289062 17.859375 -11.226562 17.890625 -8.8125 Z M 9.109375 -13.0625 C 7.910156 -13.0625 6.890625 -12.640625 6.046875 -11.796875 C 5.617188 -11.316406 5.316406 -10.84375 5.140625 -10.375 L 13.125 -10.375 C 12.945312 -10.84375 12.628906 -11.328125 12.171875 -11.828125 C 11.304688 -12.648438 10.285156 -13.0625 9.109375 -13.0625 Z M 9.109375 -13.0625 "/></g></g></g><g fill="#ffffff" fill-opacity="1"><g transform="translate(204.183681, 260.182425)"><g><path d="M 9.71875 -17.4375 C 12.21875 -17.644531 14.28125 -17 15.90625 -15.5 C 17.65625 -13.894531 18.53125 -11.640625 18.53125 -8.734375 L 18.53125 0 L 14.109375 0 L 14.109375 -8.640625 L 14.078125 -8.640625 L 14.078125 -8.703125 C 14.078125 -9.898438 13.65625 -10.921875 12.8125 -11.765625 C 11.976562 -12.597656 10.960938 -13.015625 9.765625 -13.015625 C 8.535156 -12.972656 7.515625 -12.546875 6.703125 -11.734375 C 5.835938 -10.867188 5.425781 -9.847656 5.46875 -8.671875 L 5.46875 -8.640625 L 5.4375 -8.640625 L 5.4375 0 L 0.6875 0 L 0.6875 -17.578125 L 5.4375 -17.578125 L 5.4375 -15.296875 C 6.5 -16.566406 7.925781 -17.28125 9.71875 -17.4375 Z M 9.71875 -17.4375 "/></g></g></g><g fill="#ffffff" fill-opacity="1"><g transform="translate(223.391477, 260.182425)"><g><path d="M 15.03125 -2.109375 C 13.375 -0.703125 11.445312 0 9.25 0 C 6.820312 -0.0195312 4.757812 -0.894531 3.0625 -2.625 C 1.363281 -4.34375 0.523438 -6.40625 0.546875 -8.8125 C 0.566406 -11.226562 1.4375 -13.289062 3.15625 -15 C 4.882812 -16.695312 6.945312 -17.535156 9.34375 -17.515625 C 11.519531 -17.484375 13.425781 -16.753906 15.0625 -15.328125 L 11.90625 -12.203125 C 11.132812 -12.773438 10.269531 -13.0625 9.3125 -13.0625 C 8.132812 -13.0625 7.113281 -12.648438 6.25 -11.828125 C 5.414062 -10.992188 5 -9.972656 5 -8.765625 C 4.957031 -7.585938 5.363281 -6.570312 6.21875 -5.71875 C 7.039062 -4.894531 8.0625 -4.460938 9.28125 -4.421875 C 10.226562 -4.421875 11.085938 -4.703125 11.859375 -5.265625 Z M 15.03125 -2.109375 "/></g></g></g><g fill="#ffffff" fill-opacity="1"><g transform="translate(238.961689, 260.182425)"><g><path d="M 17.515625 -17.546875 L 10.609375 0.78125 C 9.859375 2.59375 8.664062 4.03125 7.03125 5.09375 C 5.40625 6.164062 3.628906 6.675781 1.703125 6.625 L 1.703125 1.875 C 2.398438 1.894531 3.101562 1.742188 3.8125 1.421875 C 4.800781 0.972656 5.546875 0.257812 6.046875 -0.71875 L 7 -3.328125 L 1.015625 -17.546875 L 6.25 -17.546875 L 9.421875 -9.890625 L 12.234375 -17.546875 Z M 17.515625 -17.546875 "/></g></g></g><g fill="#51ade5" fill-opacity="1"><g transform="translate(50.235451, 282.332413)"><g><path d="M 6.359375 0 L 3.8125 0 L 0.1875 -10.703125 L 2.4375 -10.703125 L 5.046875 -2.71875 L 5.21875 -2.71875 L 7.78125 -10.703125 L 9.96875 -10.703125 Z M 6.359375 0 "/></g></g></g><g fill="#51ade5" fill-opacity="1"><g transform="translate(64.031466, 282.332413)"><g><path d="M 3.15625 0.15625 C 2.632812 0.15625 2.179688 0.0625 1.796875 -0.125 C 1.421875 -0.320312 1.128906 -0.601562 0.921875 -0.96875 C 0.710938 -1.34375 0.609375 -1.785156 0.609375 -2.296875 C 0.609375 -2.773438 0.710938 -3.175781 0.921875 -3.5 C 1.128906 -3.820312 1.445312 -4.085938 1.875 -4.296875 C 2.300781 -4.503906 2.863281 -4.664062 3.5625 -4.78125 C 4.039062 -4.863281 4.40625 -4.945312 4.65625 -5.03125 C 4.914062 -5.125 5.085938 -5.226562 5.171875 -5.34375 C 5.253906 -5.46875 5.296875 -5.617188 5.296875 -5.796875 C 5.296875 -6.054688 5.207031 -6.253906 5.03125 -6.390625 C 4.851562 -6.523438 4.550781 -6.59375 4.125 -6.59375 C 3.675781 -6.59375 3.25 -6.492188 2.84375 -6.296875 C 2.4375 -6.097656 2.085938 -5.835938 1.796875 -5.515625 L 1.640625 -5.515625 L 0.796875 -6.796875 C 1.203125 -7.242188 1.703125 -7.59375 2.296875 -7.84375 C 2.890625 -8.101562 3.535156 -8.234375 4.234375 -8.234375 C 5.304688 -8.234375 6.078125 -8.003906 6.546875 -7.546875 C 7.023438 -7.097656 7.265625 -6.457031 7.265625 -5.625 L 7.265625 -2.109375 C 7.265625 -1.742188 7.425781 -1.5625 7.75 -1.5625 C 7.875 -1.5625 7.992188 -1.585938 8.109375 -1.640625 L 8.203125 -1.609375 L 8.359375 -0.1875 C 8.242188 -0.113281 8.085938 -0.0507812 7.890625 0 C 7.691406 0.0390625 7.472656 0.0625 7.234375 0.0625 C 6.742188 0.0625 6.363281 -0.03125 6.09375 -0.21875 C 5.820312 -0.40625 5.628906 -0.695312 5.515625 -1.09375 L 5.359375 -1.109375 C 4.960938 -0.265625 4.226562 0.15625 3.15625 0.15625 Z M 3.796875 -1.359375 C 4.265625 -1.359375 4.640625 -1.515625 4.921875 -1.828125 C 5.203125 -2.148438 5.34375 -2.59375 5.34375 -3.15625 L 5.34375 -3.96875 L 5.203125 -4 C 5.078125 -3.90625 4.914062 -3.820312 4.71875 -3.75 C 4.519531 -3.6875 4.238281 -3.625 3.875 -3.5625 C 3.425781 -3.488281 3.101562 -3.363281 2.90625 -3.1875 C 2.71875 -3.007812 2.625 -2.753906 2.625 -2.421875 C 2.625 -2.078125 2.726562 -1.8125 2.9375 -1.625 C 3.144531 -1.445312 3.429688 -1.359375 3.796875 -1.359375 Z M 3.796875 -1.359375 "/></g></g></g><g fill="#51ade5" fill-opacity="1"><g transform="translate(76.179532, 282.332413)"><g><path d="M 4.703125 0.15625 C 3.921875 0.15625 3.226562 -0.00390625 2.625 -0.328125 C 2.03125 -0.660156 1.5625 -1.140625 1.21875 -1.765625 C 0.882812 -2.390625 0.71875 -3.144531 0.71875 -4.03125 C 0.71875 -4.925781 0.882812 -5.6875 1.21875 -6.3125 C 1.5625 -6.945312 2.03125 -7.425781 2.625 -7.75 C 3.21875 -8.070312 3.898438 -8.234375 4.671875 -8.234375 C 6.378906 -8.234375 7.472656 -7.613281 7.953125 -6.375 L 6.5625 -5.390625 L 6.40625 -5.390625 C 6.238281 -5.765625 6.019531 -6.046875 5.75 -6.234375 C 5.488281 -6.421875 5.128906 -6.515625 4.671875 -6.515625 C 4.085938 -6.515625 3.628906 -6.3125 3.296875 -5.90625 C 2.972656 -5.5 2.8125 -4.875 2.8125 -4.03125 C 2.8125 -3.207031 2.976562 -2.585938 3.3125 -2.171875 C 3.644531 -1.765625 4.109375 -1.5625 4.703125 -1.5625 C 5.148438 -1.5625 5.523438 -1.679688 5.828125 -1.921875 C 6.128906 -2.160156 6.347656 -2.5 6.484375 -2.9375 L 6.640625 -2.953125 L 8.078125 -2.171875 C 7.867188 -1.484375 7.488281 -0.921875 6.9375 -0.484375 C 6.382812 -0.0546875 5.640625 0.15625 4.703125 0.15625 Z M 4.703125 0.15625 "/></g></g></g><g fill="#51ade5" fill-opacity="1"><g transform="translate(88.137168, 282.332413)"><g><path d="M 3.15625 0.15625 C 2.632812 0.15625 2.179688 0.0625 1.796875 -0.125 C 1.421875 -0.320312 1.128906 -0.601562 0.921875 -0.96875 C 0.710938 -1.34375 0.609375 -1.785156 0.609375 -2.296875 C 0.609375 -2.773438 0.710938 -3.175781 0.921875 -3.5 C 1.128906 -3.820312 1.445312 -4.085938 1.875 -4.296875 C 2.300781 -4.503906 2.863281 -4.664062 3.5625 -4.78125 C 4.039062 -4.863281 4.40625 -4.945312 4.65625 -5.03125 C 4.914062 -5.125 5.085938 -5.226562 5.171875 -5.34375 C 5.253906 -5.46875 5.296875 -5.617188 5.296875 -5.796875 C 5.296875 -6.054688 5.207031 -6.253906 5.03125 -6.390625 C 4.851562 -6.523438 4.550781 -6.59375 4.125 -6.59375 C 3.675781 -6.59375 3.25 -6.492188 2.84375 -6.296875 C 2.4375 -6.097656 2.085938 -5.835938 1.796875 -5.515625 L 1.640625 -5.515625 L 0.796875 -6.796875 C 1.203125 -7.242188 1.703125 -7.59375 2.296875 -7.84375 C 2.890625 -8.101562 3.535156 -8.234375 4.234375 -8.234375 C 5.304688 -8.234375 6.078125 -8.003906 6.546875 -7.546875 C 7.023438 -7.097656 7.265625 -6.457031 7.265625 -5.625 L 7.265625 -2.109375 C 7.265625 -1.742188 7.425781 -1.5625 7.75 -1.5625 C 7.875 -1.5625 7.992188 -1.585938 8.109375 -1.640625 L 8.203125 -1.609375 L 8.359375 -0.1875 C 8.242188 -0.113281 8.085938 -0.0507812 7.890625 0 C 7.691406 0.0390625 7.472656 0.0625 7.234375 0.0625 C 6.742188 0.0625 6.363281 -0.03125 6.09375 -0.21875 C 5.820312 -0.40625 5.628906 -0.695312 5.515625 -1.09375 L 5.359375 -1.109375 C 4.960938 -0.265625 4.226562 0.15625 3.15625 0.15625 Z M 3.796875 -1.359375 C 4.265625 -1.359375 4.640625 -1.515625 4.921875 -1.828125 C 5.203125 -2.148438 5.34375 -2.59375 5.34375 -3.15625 L 5.34375 -3.96875 L 5.203125 -4 C 5.078125 -3.90625 4.914062 -3.820312 4.71875 -3.75 C 4.519531 -3.6875 4.238281 -3.625 3.875 -3.5625 C 3.425781 -3.488281 3.101562 -3.363281 2.90625 -3.1875 C 2.71875 -3.007812 2.625 -2.753906 2.625 -2.421875 C 2.625 -2.078125 2.726562 -1.8125 2.9375 -1.625 C 3.144531 -1.445312 3.429688 -1.359375 3.796875 -1.359375 Z M 3.796875 -1.359375 "/></g></g></g><g fill="#51ade5" fill-opacity="1"><g transform="translate(100.285234, 282.332413)"><g><path d="M 5.578125 -1.921875 L 6.09375 -0.421875 C 5.875 -0.242188 5.597656 -0.101562 5.265625 0 C 4.941406 0.101562 4.566406 0.15625 4.140625 0.15625 C 3.265625 0.15625 2.597656 -0.0820312 2.140625 -0.5625 C 1.691406 -1.039062 1.46875 -1.734375 1.46875 -2.640625 L 1.46875 -6.46875 L 0.234375 -6.46875 L 0.234375 -8.09375 L 1.46875 -8.09375 L 1.46875 -9.65625 L 3.5 -9.984375 L 3.5 -8.09375 L 5.796875 -8.09375 L 5.796875 -6.46875 L 3.5 -6.46875 L 3.5 -2.78125 C 3.5 -2.382812 3.582031 -2.09375 3.75 -1.90625 C 3.914062 -1.726562 4.15625 -1.640625 4.46875 -1.640625 C 4.832031 -1.640625 5.148438 -1.734375 5.421875 -1.921875 Z M 5.578125 -1.921875 "/></g></g></g><g fill="#51ade5" fill-opacity="1"><g transform="translate(110.192086, 282.332413)"><g><path d="M 2.171875 -9.046875 C 1.804688 -9.046875 1.507812 -9.15625 1.28125 -9.375 C 1.050781 -9.601562 0.9375 -9.890625 0.9375 -10.234375 C 0.9375 -10.585938 1.050781 -10.875 1.28125 -11.09375 C 1.507812 -11.3125 1.804688 -11.421875 2.171875 -11.421875 C 2.421875 -11.421875 2.640625 -11.367188 2.828125 -11.265625 C 3.015625 -11.171875 3.160156 -11.03125 3.265625 -10.84375 C 3.367188 -10.664062 3.421875 -10.460938 3.421875 -10.234375 C 3.421875 -10.003906 3.367188 -9.800781 3.265625 -9.625 C 3.160156 -9.445312 3.015625 -9.304688 2.828125 -9.203125 C 2.640625 -9.097656 2.421875 -9.046875 2.171875 -9.046875 Z M 1.171875 0 L 1.171875 -8.078125 L 3.1875 -8.078125 L 3.1875 0 Z M 1.171875 0 "/></g></g></g><g fill="#51ade5" fill-opacity="1"><g transform="translate(118.172669, 282.332413)"><g><path d="M 4.6875 0.15625 C 3.90625 0.15625 3.210938 -0.00390625 2.609375 -0.328125 C 2.015625 -0.660156 1.550781 -1.140625 1.21875 -1.765625 C 0.882812 -2.390625 0.71875 -3.144531 0.71875 -4.03125 C 0.71875 -4.925781 0.882812 -5.6875 1.21875 -6.3125 C 1.550781 -6.945312 2.015625 -7.425781 2.609375 -7.75 C 3.210938 -8.070312 3.90625 -8.234375 4.6875 -8.234375 C 5.476562 -8.234375 6.171875 -8.070312 6.765625 -7.75 C 7.367188 -7.425781 7.835938 -6.945312 8.171875 -6.3125 C 8.503906 -5.6875 8.671875 -4.925781 8.671875 -4.03125 C 8.671875 -3.144531 8.503906 -2.390625 8.171875 -1.765625 C 7.835938 -1.140625 7.367188 -0.660156 6.765625 -0.328125 C 6.171875 -0.00390625 5.476562 0.15625 4.6875 0.15625 Z M 4.6875 -1.5625 C 5.945312 -1.5625 6.578125 -2.382812 6.578125 -4.03125 C 6.578125 -4.882812 6.414062 -5.507812 6.09375 -5.90625 C 5.769531 -6.3125 5.300781 -6.515625 4.6875 -6.515625 C 3.4375 -6.515625 2.8125 -5.6875 2.8125 -4.03125 C 2.8125 -2.382812 3.4375 -1.5625 4.6875 -1.5625 Z M 4.6875 -1.5625 "/></g></g></g><g fill="#51ade5" fill-opacity="1"><g transform="translate(131.192314, 282.332413)"><g><path d="M 1.171875 0 L 1.171875 -8.078125 L 3.109375 -8.078125 L 3.109375 -6.890625 L 3.265625 -6.859375 C 3.765625 -7.773438 4.582031 -8.234375 5.71875 -8.234375 C 6.644531 -8.234375 7.328125 -7.976562 7.765625 -7.46875 C 8.203125 -6.957031 8.421875 -6.21875 8.421875 -5.25 L 8.421875 0 L 6.390625 0 L 6.390625 -5 C 6.390625 -5.539062 6.28125 -5.925781 6.0625 -6.15625 C 5.851562 -6.394531 5.515625 -6.515625 5.046875 -6.515625 C 4.460938 -6.515625 4.003906 -6.328125 3.671875 -5.953125 C 3.347656 -5.578125 3.1875 -4.988281 3.1875 -4.1875 L 3.1875 0 Z M 1.171875 0 "/></g></g></g><g fill="#51ade5" fill-opacity="1"><g transform="translate(144.285201, 282.332413)"><g/></g></g><g fill="#51ade5" fill-opacity="1"><g transform="translate(151.452795, 282.332413)"><g><path d="M 3.359375 0.15625 C 2.628906 0.15625 2.070312 -0.0390625 1.6875 -0.4375 C 1.300781 -0.832031 1.109375 -1.429688 1.109375 -2.234375 L 1.109375 -11.328125 L 3.140625 -11.328125 L 3.140625 -2.3125 C 3.140625 -1.8125 3.34375 -1.5625 3.75 -1.5625 C 3.875 -1.5625 4 -1.582031 4.125 -1.625 L 4.234375 -1.59375 L 4.421875 -0.03125 C 4.304688 0.0195312 4.15625 0.0625 3.96875 0.09375 C 3.78125 0.132812 3.578125 0.15625 3.359375 0.15625 Z M 3.359375 0.15625 "/></g></g></g><g fill="#51ade5" fill-opacity="1"><g transform="translate(159.726347, 282.332413)"><g><path d="M 2.171875 -9.046875 C 1.804688 -9.046875 1.507812 -9.15625 1.28125 -9.375 C 1.050781 -9.601562 0.9375 -9.890625 0.9375 -10.234375 C 0.9375 -10.585938 1.050781 -10.875 1.28125 -11.09375 C 1.507812 -11.3125 1.804688 -11.421875 2.171875 -11.421875 C 2.421875 -11.421875 2.640625 -11.367188 2.828125 -11.265625 C 3.015625 -11.171875 3.160156 -11.03125 3.265625 -10.84375 C 3.367188 -10.664062 3.421875 -10.460938 3.421875 -10.234375 C 3.421875 -10.003906 3.367188 -9.800781 3.265625 -9.625 C 3.160156 -9.445312 3.015625 -9.304688 2.828125 -9.203125 C 2.640625 -9.097656 2.421875 -9.046875 2.171875 -9.046875 Z M 1.171875 0 L 1.171875 -8.078125 L 3.1875 -8.078125 L 3.1875 0 Z M 1.171875 0 "/></g></g></g><g fill="#51ade5" fill-opacity="1"><g transform="translate(167.706929, 282.332413)"><g><path d="M 1.171875 0 L 1.171875 -11.328125 L 3.1875 -11.328125 L 3.1875 -5.046875 L 3.390625 -5.046875 L 5.734375 -8.078125 L 7.78125 -8.078125 L 7.78125 -7.90625 L 5.046875 -4.359375 L 8.09375 -0.1875 L 8.09375 0 L 5.953125 0 L 3.390625 -3.40625 L 3.1875 -3.40625 L 3.1875 0 Z M 1.171875 0 "/></g></g></g><g fill="#51ade5" fill-opacity="1"><g transform="translate(179.444836, 282.332413)"><g><path d="M 7.984375 -3.578125 L 2.796875 -3.578125 C 2.847656 -2.878906 3.046875 -2.367188 3.390625 -2.046875 C 3.734375 -1.722656 4.203125 -1.5625 4.796875 -1.5625 C 5.253906 -1.5625 5.625 -1.648438 5.90625 -1.828125 C 6.195312 -2.003906 6.429688 -2.265625 6.609375 -2.609375 L 6.765625 -2.609375 L 8.109375 -1.75 C 7.847656 -1.1875 7.453125 -0.726562 6.921875 -0.375 C 6.390625 -0.0195312 5.679688 0.15625 4.796875 0.15625 C 3.953125 0.15625 3.226562 0 2.625 -0.3125 C 2.019531 -0.632812 1.550781 -1.109375 1.21875 -1.734375 C 0.882812 -2.367188 0.71875 -3.132812 0.71875 -4.03125 C 0.71875 -4.945312 0.890625 -5.71875 1.234375 -6.34375 C 1.585938 -6.976562 2.054688 -7.453125 2.640625 -7.765625 C 3.234375 -8.078125 3.898438 -8.234375 4.640625 -8.234375 C 5.785156 -8.234375 6.660156 -7.929688 7.265625 -7.328125 C 7.878906 -6.722656 8.1875 -5.832031 8.1875 -4.65625 C 8.1875 -4.226562 8.171875 -3.898438 8.140625 -3.671875 Z M 6.234375 -4.890625 C 6.222656 -5.503906 6.082031 -5.953125 5.8125 -6.234375 C 5.539062 -6.515625 5.148438 -6.65625 4.640625 -6.65625 C 3.617188 -6.65625 3.015625 -6.066406 2.828125 -4.890625 Z M 6.234375 -4.890625 "/></g></g></g><g fill="#51ade5" fill-opacity="1"><g transform="translate(191.856571, 282.332413)"><g/></g></g><g fill="#51ade5" fill-opacity="1"><g transform="translate(199.024165, 282.332413)"><g><path d="M 1.78125 3.421875 C 1.4375 3.421875 1.125 3.394531 0.84375 3.34375 C 0.5625 3.289062 0.332031 3.222656 0.15625 3.140625 L 0.484375 1.5 L 0.609375 1.453125 C 0.734375 1.515625 0.882812 1.5625 1.0625 1.59375 C 1.25 1.632812 1.4375 1.65625 1.625 1.65625 C 1.945312 1.65625 2.21875 1.613281 2.4375 1.53125 C 2.65625 1.445312 2.835938 1.304688 2.984375 1.109375 C 3.140625 0.910156 3.28125 0.632812 3.40625 0.28125 L 0.171875 -8.078125 L 2.296875 -8.078125 L 4.3125 -2.46875 L 4.484375 -2.46875 L 6.4375 -8.078125 L 8.5 -8.078125 L 5.265625 0.5 C 5.003906 1.195312 4.71875 1.753906 4.40625 2.171875 C 4.09375 2.597656 3.722656 2.910156 3.296875 3.109375 C 2.878906 3.316406 2.375 3.421875 1.78125 3.421875 Z M 1.78125 3.421875 "/></g></g></g><g fill="#51ade5" fill-opacity="1"><g transform="translate(211.326037, 282.332413)"><g><path d="M 4.6875 0.15625 C 3.90625 0.15625 3.210938 -0.00390625 2.609375 -0.328125 C 2.015625 -0.660156 1.550781 -1.140625 1.21875 -1.765625 C 0.882812 -2.390625 0.71875 -3.144531 0.71875 -4.03125 C 0.71875 -4.925781 0.882812 -5.6875 1.21875 -6.3125 C 1.550781 -6.945312 2.015625 -7.425781 2.609375 -7.75 C 3.210938 -8.070312 3.90625 -8.234375 4.6875 -8.234375 C 5.476562 -8.234375 6.171875 -8.070312 6.765625 -7.75 C 7.367188 -7.425781 7.835938 -6.945312 8.171875 -6.3125 C 8.503906 -5.6875 8.671875 -4.925781 8.671875 -4.03125 C 8.671875 -3.144531 8.503906 -2.390625 8.171875 -1.765625 C 7.835938 -1.140625 7.367188 -0.660156 6.765625 -0.328125 C 6.171875 -0.00390625 5.476562 0.15625 4.6875 0.15625 Z M 4.6875 -1.5625 C 5.945312 -1.5625 6.578125 -2.382812 6.578125 -4.03125 C 6.578125 -4.882812 6.414062 -5.507812 6.09375 -5.90625 C 5.769531 -6.3125 5.300781 -6.515625 4.6875 -6.515625 C 3.4375 -6.515625 2.8125 -5.6875 2.8125 -4.03125 C 2.8125 -2.382812 3.4375 -1.5625 4.6875 -1.5625 Z M 4.6875 -1.5625 "/></g></g></g><g fill="#51ade5" fill-opacity="1"><g transform="translate(224.345682, 282.332413)"><g><path d="M 3.703125 0.15625 C 2.796875 0.15625 2.125 -0.0859375 1.6875 -0.578125 C 1.257812 -1.078125 1.046875 -1.789062 1.046875 -2.71875 L 1.046875 -8.078125 L 3.0625 -8.078125 L 3.0625 -2.984375 C 3.0625 -2.484375 3.164062 -2.117188 3.375 -1.890625 C 3.59375 -1.671875 3.925781 -1.5625 4.375 -1.5625 C 4.9375 -1.5625 5.375 -1.742188 5.6875 -2.109375 C 6 -2.484375 6.15625 -3.066406 6.15625 -3.859375 L 6.15625 -8.078125 L 8.1875 -8.078125 L 8.1875 0 L 6.234375 0 L 6.234375 -1.1875 L 6.078125 -1.21875 C 5.816406 -0.757812 5.5 -0.414062 5.125 -0.1875 C 4.757812 0.0390625 4.285156 0.15625 3.703125 0.15625 Z M 3.703125 0.15625 "/></g></g></g><g fill="#51ade5" fill-opacity="1"><g transform="translate(237.321381, 282.332413)"><g/></g></g><g fill="#51ade5" fill-opacity="1"><g transform="translate(244.488987, 282.332413)"><g><path d="M 3.984375 0.15625 C 3.347656 0.15625 2.785156 0 2.296875 -0.3125 C 1.804688 -0.625 1.421875 -1.09375 1.140625 -1.71875 C 0.859375 -2.34375 0.71875 -3.113281 0.71875 -4.03125 C 0.71875 -4.957031 0.859375 -5.734375 1.140625 -6.359375 C 1.429688 -6.984375 1.828125 -7.453125 2.328125 -7.765625 C 2.835938 -8.078125 3.425781 -8.234375 4.09375 -8.234375 C 4.59375 -8.234375 5.023438 -8.144531 5.390625 -7.96875 C 5.765625 -7.800781 6.078125 -7.53125 6.328125 -7.15625 L 6.484375 -7.203125 L 6.484375 -11.328125 L 8.515625 -11.328125 L 8.515625 0 L 6.484375 0 L 6.484375 -1.046875 L 6.328125 -1.078125 C 6.109375 -0.691406 5.800781 -0.390625 5.40625 -0.171875 C 5.019531 0.046875 4.546875 0.15625 3.984375 0.15625 Z M 4.65625 -1.5625 C 5.226562 -1.5625 5.675781 -1.765625 6 -2.171875 C 6.332031 -2.585938 6.5 -3.207031 6.5 -4.03125 C 6.5 -4.863281 6.332031 -5.484375 6 -5.890625 C 5.675781 -6.304688 5.226562 -6.515625 4.65625 -6.515625 C 4.050781 -6.515625 3.59375 -6.3125 3.28125 -5.90625 C 2.96875 -5.507812 2.8125 -4.882812 2.8125 -4.03125 C 2.8125 -3.1875 2.96875 -2.5625 3.28125 -2.15625 C 3.59375 -1.757812 4.050781 -1.5625 4.65625 -1.5625 Z M 4.65625 -1.5625 "/></g></g></g><g fill="#51ade5" fill-opacity="1"><g transform="translate(257.801601, 282.332413)"><g><path d="M 7.984375 -3.578125 L 2.796875 -3.578125 C 2.847656 -2.878906 3.046875 -2.367188 3.390625 -2.046875 C 3.734375 -1.722656 4.203125 -1.5625 4.796875 -1.5625 C 5.253906 -1.5625 5.625 -1.648438 5.90625 -1.828125 C 6.195312 -2.003906 6.429688 -2.265625 6.609375 -2.609375 L 6.765625 -2.609375 L 8.109375 -1.75 C 7.847656 -1.1875 7.453125 -0.726562 6.921875 -0.375 C 6.390625 -0.0195312 5.679688 0.15625 4.796875 0.15625 C 3.953125 0.15625 3.226562 0 2.625 -0.3125 C 2.019531 -0.632812 1.550781 -1.109375 1.21875 -1.734375 C 0.882812 -2.367188 0.71875 -3.132812 0.71875 -4.03125 C 0.71875 -4.945312 0.890625 -5.71875 1.234375 -6.34375 C 1.585938 -6.976562 2.054688 -7.453125 2.640625 -7.765625 C 3.234375 -8.078125 3.898438 -8.234375 4.640625 -8.234375 C 5.785156 -8.234375 6.660156 -7.929688 7.265625 -7.328125 C 7.878906 -6.722656 8.1875 -5.832031 8.1875 -4.65625 C 8.1875 -4.226562 8.171875 -3.898438 8.140625 -3.671875 Z M 6.234375 -4.890625 C 6.222656 -5.503906 6.082031 -5.953125 5.8125 -6.234375 C 5.539062 -6.515625 5.148438 -6.65625 4.640625 -6.65625 C 3.617188 -6.65625 3.015625 -6.066406 2.828125 -4.890625 Z M 6.234375 -4.890625 "/></g></g></g><g fill="#51ade5" fill-opacity="1"><g transform="translate(270.213336, 282.332413)"><g><path d="M 3.78125 0.15625 C 3.226562 0.15625 2.722656 0.09375 2.265625 -0.03125 C 1.804688 -0.164062 1.410156 -0.347656 1.078125 -0.578125 C 0.753906 -0.804688 0.515625 -1.066406 0.359375 -1.359375 L 1.5 -2.578125 L 1.640625 -2.578125 C 1.910156 -2.210938 2.226562 -1.9375 2.59375 -1.75 C 2.96875 -1.570312 3.367188 -1.484375 3.796875 -1.484375 C 4.191406 -1.484375 4.488281 -1.550781 4.6875 -1.6875 C 4.882812 -1.832031 4.984375 -2.039062 4.984375 -2.3125 C 4.984375 -2.507812 4.910156 -2.675781 4.765625 -2.8125 C 4.628906 -2.957031 4.398438 -3.070312 4.078125 -3.15625 L 3 -3.40625 C 2.195312 -3.59375 1.613281 -3.882812 1.25 -4.28125 C 0.882812 -4.675781 0.703125 -5.175781 0.703125 -5.78125 C 0.703125 -6.28125 0.828125 -6.710938 1.078125 -7.078125 C 1.335938 -7.453125 1.695312 -7.738281 2.15625 -7.9375 C 2.625 -8.132812 3.171875 -8.234375 3.796875 -8.234375 C 4.523438 -8.234375 5.128906 -8.128906 5.609375 -7.921875 C 6.085938 -7.710938 6.457031 -7.429688 6.71875 -7.078125 L 5.640625 -5.90625 L 5.5 -5.90625 C 5.269531 -6.15625 5.015625 -6.335938 4.734375 -6.453125 C 4.453125 -6.578125 4.140625 -6.640625 3.796875 -6.640625 C 2.992188 -6.640625 2.59375 -6.390625 2.59375 -5.890625 C 2.59375 -5.679688 2.664062 -5.507812 2.8125 -5.375 C 2.96875 -5.238281 3.234375 -5.128906 3.609375 -5.046875 L 4.59375 -4.828125 C 5.414062 -4.660156 6.015625 -4.378906 6.390625 -3.984375 C 6.773438 -3.597656 6.96875 -3.078125 6.96875 -2.421875 C 6.96875 -1.910156 6.835938 -1.457031 6.578125 -1.0625 C 6.328125 -0.675781 5.960938 -0.375 5.484375 -0.15625 C 5.003906 0.0507812 4.4375 0.15625 3.78125 0.15625 Z M 3.78125 0.15625 "/></g></g></g><g fill="#51ade5" fill-opacity="1"><g transform="translate(281.292063, 282.332413)"><g><path d="M 7.984375 -3.578125 L 2.796875 -3.578125 C 2.847656 -2.878906 3.046875 -2.367188 3.390625 -2.046875 C 3.734375 -1.722656 4.203125 -1.5625 4.796875 -1.5625 C 5.253906 -1.5625 5.625 -1.648438 5.90625 -1.828125 C 6.195312 -2.003906 6.429688 -2.265625 6.609375 -2.609375 L 6.765625 -2.609375 L 8.109375 -1.75 C 7.847656 -1.1875 7.453125 -0.726562 6.921875 -0.375 C 6.390625 -0.0195312 5.679688 0.15625 4.796875 0.15625 C 3.953125 0.15625 3.226562 0 2.625 -0.3125 C 2.019531 -0.632812 1.550781 -1.109375 1.21875 -1.734375 C 0.882812 -2.367188 0.71875 -3.132812 0.71875 -4.03125 C 0.71875 -4.945312 0.890625 -5.71875 1.234375 -6.34375 C 1.585938 -6.976562 2.054688 -7.453125 2.640625 -7.765625 C 3.234375 -8.078125 3.898438 -8.234375 4.640625 -8.234375 C 5.785156 -8.234375 6.660156 -7.929688 7.265625 -7.328125 C 7.878906 -6.722656 8.1875 -5.832031 8.1875 -4.65625 C 8.1875 -4.226562 8.171875 -3.898438 8.140625 -3.671875 Z M 6.234375 -4.890625 C 6.222656 -5.503906 6.082031 -5.953125 5.8125 -6.234375 C 5.539062 -6.515625 5.148438 -6.65625 4.640625 -6.65625 C 3.617188 -6.65625 3.015625 -6.066406 2.828125 -4.890625 Z M 6.234375 -4.890625 "/></g></g></g><g fill="#51ade5" fill-opacity="1"><g transform="translate(293.703798, 282.332413)"><g><path d="M 1.171875 0 L 1.171875 -8.078125 L 3.140625 -8.078125 L 3.140625 -6.875 L 3.28125 -6.84375 C 3.476562 -7.289062 3.734375 -7.617188 4.046875 -7.828125 C 4.367188 -8.046875 4.757812 -8.15625 5.21875 -8.15625 C 5.675781 -8.15625 6.023438 -8.078125 6.265625 -7.921875 L 5.921875 -6.171875 L 5.765625 -6.140625 C 5.628906 -6.191406 5.5 -6.226562 5.375 -6.25 C 5.257812 -6.28125 5.113281 -6.296875 4.9375 -6.296875 C 4.375 -6.296875 3.941406 -6.09375 3.640625 -5.6875 C 3.335938 -5.289062 3.1875 -4.65625 3.1875 -3.78125 L 3.1875 0 Z M 1.171875 0 "/></g></g></g><g fill="#51ade5" fill-opacity="1"><g transform="translate(303.669243, 282.332413)"><g><path d="M 5.5625 0 L 3.140625 0 L 0.15625 -8.078125 L 2.28125 -8.078125 L 4.28125 -2.328125 L 4.453125 -2.328125 L 6.46875 -8.078125 L 8.546875 -8.078125 Z M 5.5625 0 "/></g></g></g><g fill="#51ade5" fill-opacity="1"><g transform="translate(315.985763, 282.332413)"><g><path d="M 7.984375 -3.578125 L 2.796875 -3.578125 C 2.847656 -2.878906 3.046875 -2.367188 3.390625 -2.046875 C 3.734375 -1.722656 4.203125 -1.5625 4.796875 -1.5625 C 5.253906 -1.5625 5.625 -1.648438 5.90625 -1.828125 C 6.195312 -2.003906 6.429688 -2.265625 6.609375 -2.609375 L 6.765625 -2.609375 L 8.109375 -1.75 C 7.847656 -1.1875 7.453125 -0.726562 6.921875 -0.375 C 6.390625 -0.0195312 5.679688 0.15625 4.796875 0.15625 C 3.953125 0.15625 3.226562 0 2.625 -0.3125 C 2.019531 -0.632812 1.550781 -1.109375 1.21875 -1.734375 C 0.882812 -2.367188 0.71875 -3.132812 0.71875 -4.03125 C 0.71875 -4.945312 0.890625 -5.71875 1.234375 -6.34375 C 1.585938 -6.976562 2.054688 -7.453125 2.640625 -7.765625 C 3.234375 -8.078125 3.898438 -8.234375 4.640625 -8.234375 C 5.785156 -8.234375 6.660156 -7.929688 7.265625 -7.328125 C 7.878906 -6.722656 8.1875 -5.832031 8.1875 -4.65625 C 8.1875 -4.226562 8.171875 -3.898438 8.140625 -3.671875 Z M 6.234375 -4.890625 C 6.222656 -5.503906 6.082031 -5.953125 5.8125 -6.234375 C 5.539062 -6.515625 5.148438 -6.65625 4.640625 -6.65625 C 3.617188 -6.65625 3.015625 -6.066406 2.828125 -4.890625 Z M 6.234375 -4.890625 "/></g></g></g></svg>